<?xml version="1.0" encoding="utf-8"?>
<!-- Generator: Adobe Illustrator 19.2.1, SVG Export Plug-In . SVG Version: 6.00 Build 0)  -->
<svg version="1.1" id="layer" xmlns="http://www.w3.org/2000/svg" xmlns:xlink="http://www.w3.org/1999/xlink" x="0px" y="0px"
	 viewBox="0 0 652 652" style="enable-background:new 0 0 652 652;" xml:space="preserve">
<style type="text/css">
	.st0{fill:#6846C6;}
</style>
<g id="Layer_1">
	<path class="st0" d="M53.5,359.1c-6.3,0-11.4-5.1-11.4-11.4v-53.8c0-6.3,5.1-11.4,11.4-11.4h10.2v-20.4h-6.4
		c-19.7,0-35.6,15.9-35.6,35.6v46.2c0,19.7,15.9,35.6,35.6,35.6h6.4v-20.4H53.5z"/>
	<path class="st0" d="M589.9,282.5c6.3,0,11.4,5.1,11.4,11.4v53.8c0,6.3-5.1,11.4-11.4,11.4h-10.2v20.4h6.4
		c19.7,0,35.6-15.9,35.6-35.6v-46.2c0-19.7-15.9-35.6-35.6-35.6h-6.4v20.4L589.9,282.5L589.9,282.5z"/>
	<path class="st0" d="M176.2,327.1c0-19.3-13.6-31.1-31.2-31.1c-18.3,0-32,12.9-32,30.9c0,17.8,13.5,30.9,34.2,30.9
		c10.8,0,19.2-3.3,24.7-9.7l-9.2-10c-4.1,3.9-8.7,5.8-15,5.8c-9.1,0-15.5-4.6-17.2-12h45.3C176,330.3,176.2,328.4,176.2,327.1z
		 M130.3,321.6c1.2-7.7,6.9-12.5,14.8-12.5c7.8,0,13.5,4.9,14.7,12.5H130.3z"/>
	<path class="st0" d="M251.4,356.8l-23.2-30.6l22.3-29.3h-18.5l-13,17.5l-12.7-17.5h-19.5l22.3,29.8L186,356.8H205l13.6-18.4
		l13.2,18.4H251.4z"/>
	<path class="st0" d="M302.8,296c-8,0-14.5,2.6-18.8,7.8v-6.9h-16.6v81.6h17.4v-28c4.5,4.9,10.6,7.2,18,7.2
		c16.8,0,29.9-12,29.9-30.9C332.7,308,319.7,296,302.8,296z M299.8,343.5c-8.7,0-15.3-6.2-15.3-16.6s6.6-16.6,15.3-16.6
		s15.3,6.2,15.3,16.6S308.5,343.5,299.8,343.5z"/>
	<path class="st0" d="M350.5,274.2h17.4v82.7h-17.4V274.2z"/>
	<path class="st0" d="M447.7,327.1c0-19.3-13.6-31.1-31.2-31.1c-18.3,0-32,12.9-32,30.9c0,17.8,13.5,30.9,34.2,30.9
		c10.8,0,19.2-3.3,24.7-9.7l-9.2-10c-4.1,3.9-8.7,5.8-15,5.8c-9.1,0-15.5-4.6-17.2-12h45.3C447.5,330.3,447.7,328.4,447.7,327.1z
		 M401.8,321.6c1.2-7.7,6.9-12.5,14.8-12.5c7.8,0,13.5,4.9,14.7,12.5H401.8z"/>
	<path class="st0" d="M494.1,296c-19.1,0-33,12.8-33,30.9c0,18,13.9,30.9,33,30.9c19.1,0,32.9-12.8,32.9-30.9
		C526.9,308.8,513.1,296,494.1,296z M494.1,343.5c-8.7,0-15.4-6.2-15.4-16.6s6.7-16.6,15.4-16.6c8.7,0,15.3,6.2,15.3,16.6
		S502.8,343.5,494.1,343.5z"/>
</g>
</svg>
